<?xml version="1.0" encoding="UTF-8"?>
<svg xmlns="http://www.w3.org/2000/svg" viewBox="101 -28 874 1110">
  <defs>
    <marker id="tick" markerWidth="4" markerHeight="12" refX="2" refY="6"
            orient="auto">
      <rect x="1" y="0" width="2.5" height="12" fill="#c94f4f"/>
    </marker>
  </defs>
  <path d="M 439.5,282.1 C 438.2,282.5 438.0,283.40000000000003 437.7,284.20000000000005 C 433.59999999999997,294.1 426.3,301.50000000000006 418.8,308.80000000000007 C 408.3,319.00000000000006 396.7,328.1000000000001 385.6,337.6000000000001 C 379.20000000000005,343.1000000000001 373.20000000000005,349.00000000000006 367.70000000000005,355.50000000000006 C 360.30000000000007,364.30000000000007 351.90000000000003,372.00000000000006 342.20000000000005,378.20000000000005 C 328.6,386.90000000000003 315.70000000000005,396.6 301.70000000000005,404.6 C 284.70000000000005,414.3 267.90000000000003,424.5 250.40000000000003,433.3 C 247.40000000000003,434.8 244.70000000000005,436.8 242.10000000000002,439.0 C 239.40000000000003,441.3 237.40000000000003,444.2 236.50000000000003,447.6 C 234.50000000000003,455.1 230.30000000000004,461.20000000000005 224.10000000000002,465.6 C 217.8,470.1 212.10000000000002,475.20000000000005 206.00000000000003,479.90000000000003 C 205.50000000000003,480.3 204.90000000000003,480.70000000000005 204.70000000000002,481.20000000000005 C 203.20000000000002,484.80000000000007 200.8,488.1 199.9,492.00000000000006 C 199.0,496.00000000000006 197.5,499.80000000000007 196.3,503.70000000000005 C 195.8,505.1 195.10000000000002,506.40000000000003 194.0,507.50000000000006 C 192.7,508.70000000000005 191.2,509.1000000000001 189.6,508.30000000000007 C 187.79999999999998,507.4000000000001 187.6,505.80000000000007 188.0,504.20000000000005 C 188.4,502.6 188.9,501.1 189.4,499.6 C 190.4,496.40000000000003 191.3,493.20000000000005 191.6,489.70000000000005 C 189.6,491.20000000000005 189.5,491.1 189.2,493.30000000000007 C 188.6,497.30000000000007 187.5,501.00000000000006 185.89999999999998,504.70000000000005 C 185.29999999999998,506.20000000000005 185.2,507.80000000000007 185.09999999999997,509.40000000000003 C 184.89999999999998,511.8 184.19999999999996,514.1 182.59999999999997,515.8000000000001 C 181.39999999999998,517.1 179.79999999999995,517.9000000000001 177.89999999999998,517.2 C 175.89999999999998,516.4000000000001 175.59999999999997,514.8000000000001 175.7,512.9000000000001 C 175.7,511.7000000000001 175.89999999999998,510.6000000000001 175.6,509.30000000000007 C 175.1,510.50000000000006 174.6,511.80000000000007 174.0,513.0000000000001 C 173.4,514.2000000000002 172.7,515.4000000000001 171.5,516.2000000000002 C 168.9,518.0000000000001 165.7,516.8000000000002 165.4,513.7000000000002 C 165.20000000000002,512.0000000000001 164.9,510.90000000000015 163.1,510.60000000000014 C 160.9,510.20000000000016 160.7,508.40000000000015 160.9,506.5000000000001 C 161.4,501.8000000000001 162.3,497.2000000000001 163.5,492.60000000000014 C 163.9,491.20000000000016 164.5,489.8000000000001 164.7,488.3000000000001 C 165.39999999999998,482.60000000000014 168.39999999999998,478.2000000000001 172.2,474.10000000000014 C 176.2,469.90000000000015 180.2,465.60000000000014 182.79999999999998,460.3000000000001 C 184.29999999999998,457.2000000000001 186.89999999999998,454.7000000000001 189.49999999999997,452.40000000000015 C 195.89999999999998,446.60000000000014 202.09999999999997,440.40000000000015 209.49999999999997,435.70000000000016 C 213.49999999999997,433.20000000000016 216.59999999999997,429.90000000000015 219.19999999999996,426.10000000000014 C 223.79999999999995,419.10000000000014 229.39999999999995,413.10000000000014 235.69999999999996,407.60000000000014 C 254.49999999999997,391.10000000000014 272.09999999999997,373.5000000000001 288.9,355.0000000000001 C 300.9,341.7000000000001 314.5,330.4000000000001 329.9,321.4000000000001 C 340.79999999999995,315.0000000000001 350.09999999999997,306.5000000000001 358.5,297.30000000000007 C 372.1,282.50000000000006 385.3,267.30000000000007 396.1,250.20000000000007 C 405.20000000000005,235.80000000000007 417.0,223.80000000000007 429.90000000000003,212.80000000000007 C 432.70000000000005,210.40000000000006 435.8,208.60000000000008 439.1,207.30000000000007 C 446.1,204.40000000000006 453.3,202.00000000000006 460.70000000000005,200.60000000000008 C 474.50000000000006,198.00000000000009 487.1,192.10000000000008 499.30000000000007,185.4000000000001 C 500.4000000000001,184.8000000000001 501.4000000000001,184.10000000000008 502.4000000000001,183.3000000000001 C 506.1000000000001,180.4000000000001 508.2000000000001,176.7000000000001 508.2000000000001,171.8000000000001 C 508.2000000000001,162.9000000000001 507.4000000000001,154.00000000000009 506.8000000000001,145.00000000000009 C 506.40000000000015,138.9000000000001 504.10000000000014,133.50000000000009 502.7000000000001,127.40000000000009 C 500.2000000000001,129.2000000000001 498.4000000000001,127.90000000000009 496.6000000000001,126.50000000000009 C 494.80000000000007,125.00000000000009 493.30000000000007,123.20000000000009 492.4000000000001,120.90000000000009 C 490.30000000000007,115.1000000000001 489.7000000000001,109.1000000000001 489.5000000000001,103.00000000000009 C 489.4000000000001,99.50000000000009 490.4000000000001,98.50000000000009 494.10000000000014,97.60000000000008 C 495.60000000000014,97.20000000000007 495.3000000000001,96.20000000000007 495.10000000000014,95.30000000000008 C 494.40000000000015,91.40000000000008 494.5000000000001,87.40000000000008 494.70000000000016,83.40000000000008 C 495.50000000000017,66.90000000000008 501.60000000000014,52.800000000000075 514.5000000000001,42.10000000000008 C 521.0000000000001,36.70000000000008 528.3000000000001,33.40000000000008 536.7000000000002,32.50000000000008 C 545.4000000000002,31.60000000000008 553.5000000000001,33.70000000000008 560.7000000000002,38.60000000000008 C 573.7000000000002,47.40000000000008 581.4000000000002,59.70000000000008 584.2000000000002,75.10000000000008 C 585.4000000000002,81.50000000000009 585.4000000000002,87.90000000000008 584.8000000000002,94.40000000000008 C 584.7000000000002,95.80000000000008 584.3000000000002,97.10000000000008 586.6000000000001,97.10000000000008 C 588.2000000000002,97.10000000000008 589.1000000000001,98.40000000000008 589.6000000000001,100.00000000000009 C 590.0000000000001,101.30000000000008 590.2000000000002,102.70000000000009 590.1000000000001,104.00000000000009 C 589.5000000000001,109.30000000000008 589.1000000000001,114.60000000000008 587.8000000000002,119.80000000000008 C 587.4000000000002,121.50000000000009 586.8000000000002,123.10000000000008 585.9000000000002,124.60000000000008 C 584.8000000000002,126.30000000000008 583.3000000000002,128.00000000000009 581.4000000000002,128.20000000000007 C 578.9000000000002,128.40000000000006 578.4000000000002,129.80000000000007 577.9000000000002,131.70000000000007 C 577.6000000000003,132.80000000000007 577.4000000000002,133.90000000000006 576.9000000000002,134.90000000000006 C 574.1000000000003,140.20000000000007 573.7000000000002,146.00000000000006 573.4000000000002,151.90000000000006 C 573.1000000000003,158.80000000000007 573.0000000000002,165.80000000000007 573.1000000000003,172.70000000000007 C 573.2000000000003,177.40000000000006 575.1000000000003,181.10000000000008 579.0000000000002,183.70000000000007 C 580.3000000000002,184.60000000000008 581.6000000000003,185.60000000000008 583.0000000000002,186.40000000000006 C 595.0000000000002,192.80000000000007 607.2000000000003,198.40000000000006 620.6000000000003,201.30000000000007 C 627.6000000000003,202.90000000000006 634.4000000000002,205.30000000000007 641.0000000000002,208.10000000000008 C 645.0000000000002,209.80000000000007 648.7000000000003,212.20000000000007 651.9000000000002,215.10000000000008 C 664.8000000000002,226.70000000000007 676.5000000000002,239.30000000000007 685.9000000000002,253.9000000000001 C 694.8000000000002,267.9000000000001 705.6000000000003,280.30000000000007 717.2000000000002,292.2000000000001 C 724.6000000000001,299.8000000000001 731.7000000000002,307.5000000000001 740.1000000000001,314.1000000000001 C 745.4000000000001,318.30000000000007 751.0000000000001,321.9000000000001 756.7000000000002,325.50000000000006 C 769.0000000000001,333.20000000000005 780.0000000000001,342.30000000000007 789.9000000000002,352.90000000000003 C 807.7000000000002,372.00000000000006 826.6000000000003,390.00000000000006 845.6000000000003,407.8 C 850.1000000000003,412.0 853.7000000000003,416.8 857.4000000000002,421.7 C 861.0000000000002,426.4 864.9000000000002,430.59999999999997 870.1000000000003,433.59999999999997 C 873.2000000000003,435.4 876.0000000000002,437.7 878.6000000000003,440.2 C 883.2000000000003,444.8 888.4000000000002,448.59999999999997 892.4000000000002,453.8 C 892.8000000000002,454.3 893.3000000000002,454.7 893.6000000000003,455.3 C 896.7000000000003,461.8 902.2000000000003,466.5 906.6000000000003,472.0 C 908.8000000000003,474.8 910.4000000000002,477.7 911.3000000000003,481.2 C 913.0000000000003,487.59999999999997 914.3000000000003,494.0 914.9000000000003,500.5 C 915.1000000000004,502.5 915.0000000000003,504.3 912.7000000000003,505.0 C 911.4000000000003,505.4 911.3000000000003,506.2 911.4000000000003,507.3 C 911.4000000000003,507.90000000000003 911.4000000000003,508.5 911.4000000000003,509.2 C 911.5000000000003,511.0 910.7000000000003,512.3 909.0000000000003,513.0 C 907.1000000000004,513.7 905.5000000000003,513.1 904.3000000000003,511.7 C 903.4000000000003,510.59999999999997 902.7000000000003,509.3 901.9000000000003,507.9 C 901.4000000000003,509.09999999999997 901.8000000000003,510.09999999999997 901.7000000000003,511.09999999999997 C 901.6000000000003,512.5 901.2000000000003,513.8 899.7000000000003,514.4 C 898.2000000000003,515.0 896.8000000000003,514.6999999999999 895.5000000000002,513.6999999999999 C 893.6000000000003,512.1999999999999 892.7000000000003,509.99999999999994 892.6000000000003,507.79999999999995 C 892.6000000000003,504.09999999999997 891.1000000000003,500.79999999999995 890.0000000000002,497.4 C 889.4000000000002,495.59999999999997 889.1000000000003,493.79999999999995 888.6000000000003,492.0 C 888.3000000000003,490.8 888.4000000000002,489.5 886.8000000000003,488.6 C 887.2000000000003,492.20000000000005 887.8000000000003,495.5 888.8000000000003,498.8 C 889.2000000000003,500.2 889.7000000000003,501.6 890.1000000000003,503.1 C 890.5000000000002,504.70000000000005 890.1000000000003,506.1 888.5000000000002,506.90000000000003 C 887.0000000000002,507.6 885.6000000000003,507.40000000000003 884.3000000000002,506.3 C 882.9000000000002,505.1 882.1000000000001,503.6 881.7000000000002,501.90000000000003 C 880.7000000000002,497.8 879.3000000000002,493.8 877.9000000000002,489.90000000000003 C 876.3000000000002,485.50000000000006 874.4000000000002,480.90000000000003 870.1000000000003,478.00000000000006 C 869.1000000000003,477.30000000000007 868.1000000000003,476.50000000000006 867.3000000000003,475.6000000000001 C 864.1000000000003,472.1000000000001 860.4000000000003,469.2000000000001 856.6000000000003,466.30000000000007 C 849.7000000000003,460.9000000000001 844.3000000000003,454.4000000000001 841.7000000000003,445.9000000000001 C 839.9000000000003,439.9000000000001 835.5000000000002,436.1000000000001 830.5000000000002,433.0000000000001 C 827.5000000000002,431.10000000000014 824.1000000000003,429.7000000000001 821.0000000000002,427.9000000000001 C 797.3000000000002,413.9000000000001 772.9000000000002,400.9000000000001 750.5000000000002,384.80000000000007 C 748.2000000000003,383.1000000000001 745.8000000000002,381.50000000000006 743.4000000000002,380.00000000000006 C 731.5000000000002,372.80000000000007 721.2000000000002,363.70000000000005 711.9000000000002,353.50000000000006 C 706.3000000000002,347.40000000000003 700.2000000000002,341.70000000000005 693.6000000000003,336.6000000000001 C 679.7000000000003,325.80000000000007 665.9000000000002,314.80000000000007 653.5000000000002,302.2000000000001 C 648.4000000000002,297.1000000000001 643.5000000000002,291.8000000000001 640.2000000000003,285.3000000000001 C 639.9000000000003,284.8000000000001 639.6000000000003,284.2000000000001 639.2000000000003,283.7000000000001 C 639.1000000000003,283.5000000000001 638.8000000000003,283.4000000000001 638.4000000000003,283.1000000000001 C 637.7000000000003,283.80000000000007 637.6000000000004,284.80000000000007 637.3000000000003,285.7000000000001 C 634.0000000000003,295.3000000000001 632.6000000000003,305.2000000000001 631.3000000000003,315.2000000000001 C 630.6000000000003,320.4000000000001 629.7000000000003,325.5000000000001 628.2000000000003,330.5000000000001 C 626.1000000000003,337.4000000000001 624.6000000000003,344.4000000000001 624.2000000000003,351.60000000000014 C 623.5000000000002,361.90000000000015 622.1000000000003,372.10000000000014 623.2000000000003,382.40000000000015 C 623.9000000000003,388.8000000000001 624.9000000000003,395.20000000000016 625.8000000000003,401.60000000000014 C 628.4000000000003,420.3000000000001 632.0000000000003,438.8000000000001 636.2000000000003,457.20000000000016 C 638.3000000000003,466.70000000000016 639.2000000000003,476.3000000000002 640.3000000000003,485.90000000000015 C 642.1000000000003,501.00000000000017 644.2000000000003,516.2000000000002 646.0000000000003,531.3000000000002 C 647.1000000000004,540.9000000000002 647.2000000000004,550.6000000000001 646.7000000000004,560.3000000000002 C 645.7000000000004,581.7000000000002 641.5000000000003,602.6000000000001 637.8000000000004,623.6000000000001 C 634.4000000000004,642.5000000000001 630.8000000000004,661.4000000000001 628.7000000000004,680.5000000000001 C 628.0000000000003,687.3000000000001 627.6000000000004,694.1000000000001 627.9000000000004,700.9000000000001 C 628.1000000000005,707.8000000000001 628.3000000000004,714.8000000000001 628.2000000000004,721.7 C 627.9000000000004,736.3000000000001 629.5000000000003,750.7 631.8000000000004,765.1 C 634.5000000000005,782.8000000000001 634.9000000000004,800.4 632.4000000000004,818.1 C 628.2000000000004,847.5 622.9000000000004,876.6 616.2000000000004,905.5 C 614.8000000000004,911.4 613.8000000000004,917.4 613.2000000000004,923.5 C 612.7000000000004,929.0 613.7000000000004,934.4 614.7000000000004,939.8 C 615.1000000000004,942.1999999999999 615.2000000000004,944.5 614.9000000000004,946.8 C 614.0000000000005,953.0999999999999 614.0000000000005,959.4 616.6000000000005,965.5 C 617.3000000000005,967.1 617.7000000000005,968.8 618.1000000000005,970.5 C 619.5000000000005,976.4 622.6000000000005,981.3 626.7000000000005,985.9 C 631.4000000000005,991.1999999999999 636.1000000000005,996.5 638.4000000000005,1003.4 C 639.8000000000005,1007.6999999999999 638.0000000000006,1013.6999999999999 634.3000000000005,1016.3 C 630.6000000000005,1018.9 626.8000000000005,1020.5999999999999 621.9000000000005,1020.1999999999999 C 616.6000000000006,1019.8 611.3000000000005,1020.6999999999999 605.9000000000005,1020.9999999999999 C 604.9000000000005,1020.9999999999999 603.9000000000005,1021.3999999999999 603.0000000000006,1020.6999999999999 C 601.6000000000006,1019.5999999999999 600.4000000000005,1018.4 598.4000000000005,1018.5999999999999 C 598.1000000000006,1018.5999999999999 597.6000000000006,1018.3 597.5000000000006,1017.9999999999999 C 596.2000000000006,1015.1999999999999 593.3000000000005,1013.3999999999999 592.4000000000005,1010.2999999999998 C 591.7000000000005,1007.8999999999999 590.3000000000005,1005.7999999999998 588.9000000000005,1003.7999999999998 C 586.4000000000005,999.9999999999999 584.5000000000006,996.0999999999998 585.7000000000005,991.2999999999998 C 586.3000000000005,988.6999999999998 585.4000000000005,986.0999999999998 584.5000000000005,983.6999999999998 C 584.1000000000005,982.4999999999998 583.5000000000005,981.3999999999999 583.0000000000005,980.2999999999998 C 580.3000000000004,975.2999999999998 579.4000000000004,970.0999999999998 580.0000000000005,964.4999999999999 C 580.4000000000004,960.6999999999999 580.3000000000004,956.7999999999998 579.4000000000004,952.9999999999999 C 578.4000000000004,948.5999999999999 578.4000000000004,944.0999999999999 578.4000000000004,939.6999999999999 C 578.4000000000004,938.4 578.7000000000004,937.3 579.1000000000005,936.0999999999999 C 582.4000000000004,925.4999999999999 582.8000000000005,914.6999999999999 581.9000000000004,903.6999999999999 C 580.1000000000005,880.8 576.2000000000004,858.1999999999999 572.3000000000004,835.5999999999999 C 569.5000000000005,819.1999999999999 569.2000000000004,802.8 570.8000000000004,786.3 C 571.8000000000004,776.1999999999999 572.6000000000004,766.0 570.5000000000005,755.9 C 569.3000000000004,750.1 568.1000000000005,744.1999999999999 565.9000000000004,738.6999999999999 C 560.8000000000004,725.4 559.5000000000005,711.4999999999999 558.5000000000005,697.4999999999999 C 557.5000000000005,683.3999999999999 556.5000000000005,669.2999999999998 554.9000000000004,655.1999999999999 C 553.5000000000005,643.1999999999999 550.8000000000004,631.4999999999999 548.5000000000005,619.6999999999999 C 545.7000000000005,605.4999999999999 543.1000000000005,591.1999999999999 541.8000000000004,576.6999999999999 C 541.5000000000005,573.3 541.8000000000004,570.0999999999999 542.8000000000004,566.8 C 543.5000000000005,564.5999999999999 543.0000000000005,564.1999999999999 540.8000000000004,563.9 C 538.5000000000005,563.6 538.1000000000004,563.9 538.4000000000004,566.1999999999999 C 538.8000000000004,569.4999999999999 539.2000000000004,572.8 538.9000000000004,576.1999999999999 C 537.9000000000004,589.1999999999999 535.4000000000004,601.9999999999999 533.0000000000005,614.8 C 530.7000000000005,627.0999999999999 527.7000000000005,639.3 526.3000000000004,651.8 C 525.3000000000004,660.8 524.8000000000004,669.9 523.6000000000004,678.8 C 521.8000000000004,692.9 521.2000000000004,707.1999999999999 518.5000000000003,721.3 C 517.5000000000003,726.1999999999999 516.0000000000003,730.9 514.2000000000004,735.5 C 510.60000000000036,745.2 508.0000000000004,755.1 506.9000000000004,765.4 C 505.9000000000004,774.0 506.9000000000004,782.5 507.60000000000036,791.0 C 508.7000000000004,803.5 508.60000000000036,816.0 506.9000000000004,828.5 C 504.0000000000004,849.6 500.60000000000036,870.7 498.60000000000036,892.0 C 497.60000000000036,902.3 497.2000000000004,912.5 499.10000000000036,922.8 C 499.80000000000035,926.8 501.2000000000004,930.6999999999999 502.30000000000035,934.6999999999999 C 503.4000000000004,938.8 503.4000000000004,942.8 502.50000000000034,946.8 C 500.70000000000033,955.1999999999999 499.10000000000036,963.5999999999999 498.9000000000003,972.1999999999999 C 498.9000000000003,975.1999999999999 497.6000000000003,977.9999999999999 496.50000000000034,980.8 C 494.60000000000036,985.6999999999999 493.30000000000035,990.6999999999999 493.9000000000003,996.0 C 494.20000000000033,998.8 493.4000000000003,1001.4 491.70000000000033,1003.7 C 490.00000000000034,1006.0 488.70000000000033,1008.5 487.9000000000003,1011.3000000000001 C 487.20000000000033,1014.2 484.9000000000003,1016.1 483.20000000000033,1018.4000000000001 C 482.9000000000003,1018.8000000000001 482.4000000000003,1019.0000000000001 481.9000000000003,1019.1000000000001 C 478.8000000000003,1019.3000000000002 476.3000000000003,1021.0000000000001 473.50000000000034,1021.9000000000001 C 470.70000000000033,1022.8000000000001 467.9000000000003,1022.8000000000001 465.10000000000036,1022.3000000000001 C 463.9000000000004,1022.1 462.7000000000004,1021.7 461.4000000000004,1021.8000000000001 C 454.60000000000036,1022.1 448.9000000000004,1019.4000000000001 443.5000000000004,1015.6 C 439.9000000000004,1013.1 439.0000000000004,1009.7 439.6000000000004,1005.9 C 440.3000000000004,1001.5 441.70000000000044,997.4 445.0000000000004,993.9 C 448.3000000000004,990.4 451.2000000000004,986.5 454.7000000000004,983.1 C 458.5000000000004,979.3000000000001 460.7000000000004,974.6 462.4000000000004,969.6 C 463.4000000000004,966.7 464.4000000000004,963.7 465.5000000000004,960.8000000000001 C 466.0000000000004,959.4000000000001 466.3000000000004,958.0000000000001 466.3000000000004,956.4000000000001 C 466.3000000000004,954.3000000000001 466.3000000000004,952.2 466.3000000000004,950.1000000000001 C 466.1000000000004,945.9000000000001 466.1000000000004,941.7000000000002 467.0000000000004,937.5000000000001 C 468.9000000000004,928.0000000000001 467.6000000000004,918.7000000000002 465.1000000000004,909.5000000000001 C 460.20000000000044,890.9000000000001 455.6000000000004,872.2000000000002 451.90000000000043,853.4000000000001 C 449.3000000000004,840.3000000000001 446.70000000000044,827.1000000000001 445.1000000000004,813.8000000000001 C 443.40000000000043,799.7 443.8000000000004,785.6 445.8000000000004,771.5000000000001 C 447.6000000000004,759.0000000000001 449.6000000000004,746.5000000000001 451.2000000000004,733.9000000000001 C 451.8000000000004,729.0000000000001 451.8000000000004,724.0000000000001 451.8000000000004,719.0000000000001 C 451.8000000000004,708.5000000000001 452.5000000000004,697.9000000000001 451.7000000000004,687.4000000000001 C 450.60000000000036,672.7 448.3000000000004,658.1000000000001 445.8000000000004,643.5000000000001 C 442.7000000000004,625.8000000000001 439.3000000000004,608.1000000000001 436.2000000000004,590.4000000000001 C 432.8000000000004,571.5000000000001 431.4000000000004,552.5000000000001 433.0000000000004,533.3000000000001 C 433.7000000000004,525.6 434.7000000000004,518.0000000000001 435.8000000000004,510.4000000000001 C 437.40000000000043,499.6000000000001 438.90000000000043,488.80000000000007 439.90000000000043,477.9000000000001 C 441.20000000000044,463.9000000000001 444.3000000000004,450.30000000000007 447.90000000000043,436.7000000000001 C 452.50000000000045,419.2000000000001 455.70000000000044,401.3000000000001 457.8000000000004,383.3000000000001 C 458.8000000000004,374.8000000000001 458.0000000000004,366.2000000000001 457.1000000000004,357.7000000000001 C 456.8000000000004,355.0000000000001 456.40000000000043,352.3000000000001 456.3000000000004,349.6000000000001 C 456.1000000000004,340.6000000000001 452.90000000000043,332.1000000000001 451.1000000000004,323.4000000000001 C 449.70000000000044,316.5000000000001 448.20000000000044,309.6000000000001 446.8000000000004,302.6000000000001 C 445.5000000000004,296.00000000000006 443.1000000000004,289.7000000000001 440.90000000000043,283.4000000000001 C 440.8000000000004,283.1000000000001 440.50000000000045,282.80000000000007 440.1000000000004,282.4000000000001 L 439.5,282.1" fill="#fdfbff" stroke="#c5b8d4"
        stroke-width="2.5"/>
  <line x1="485" y1="532" x2="590" y2="532" stroke="#c94f4f" stroke-width="5" marker-start="url(#tick)" marker-end="url(#tick)"/>
  <circle cx="485" cy="532" r="9" fill="#c94f4f"/>
  <circle cx="590" cy="532" r="9" fill="#c94f4f"/>
</svg>
