<?xml version="1.0" encoding="UTF-8" standalone="no"?>
<svg xmlns:rdf="http://www.w3.org/1999/02/22-rdf-syntax-ns#" xmlns="http://www.w3.org/2000/svg" viewBox="0 0 880 620" xmlns:cc="http://creativecommons.org/ns#" xmlns:xlink="http://www.w3.org/1999/xlink" xmlns:dc="http://purl.org/dc/elements/1.1/">
  <title>
    Ermittlung der Körpermaße
  </title>
  <metadata>
    <rdf:RDF>
      <cc:Work>
        <dc:format>
          image/svg+xml
        </dc:format>
        <dc:type rdf:resource="http://purl.org/dc/dcmitype/StillImage"/>
        <dc:title>
          Ermittlung der Körpermaße
        </dc:title>
        <dc:description>
          <rdf:Alt>
            Körpermaße zur Bestimmung der Konfektionsgröße für Frauen und Männer.
          </rdf:Alt>
        </dc:description>
        <dc:creator>
          <cc:Agent>
            <dc:title>
              MagentaGreen
            </dc:title>
          </cc:Agent>
        </dc:creator>
      </cc:Work>
    </rdf:RDF>
  </metadata>
  <path fill="#f8f9fa" d="M0 0h880v620H0z"/>
  <path d="M825.96 251.02c-.438-4.93-1.352-11.555-2.035-14.723-.68-3.168-1.63-8.434-2.105-11.703-1.832-12.563-4.258-19.016-9.797-26.094-4.746-6.062-5.5-8.258-6.73-19.582-.645-5.94-1.195-8.383-3.176-14.14l-2.398-6.962.32-5.23c.77-12.71-2.45-24.445-8.98-32.652-7.06-8.868-13.63-12.48-24.75-13.633-5.23-.54-5.53-.64-9.05-3.04-2-1.36-4.46-2.79-5.45-3.16-.99-.37-4.18-1.73-7.08-3.01-6.16-2.71-6.36-3.02-6.35-9.61.01-6.57.86-13.05 2.58-19.73 1.34-5.2 2.28-7.19 3.77-8.72 2.46-2.52 3.45-5.59 3.67-11.34.05-1.31.04-2.49.06-3.46-.15.27-.22-.98-.63-1.51-.75-.94-2.63-2.4-5.03 1.24-2.41 3.65-4.04 1.44-4.15-9.42-.04-4.14-.19-4.92-1.05-5.55-1.29-.94-3.44-.93-8.13.06-3.55.75-4.13.73-9.72-.28-3.27-.59-7.08-1.33-8.45-1.63l-2.5-.55-2.28 2.23c-1.84 1.81-2.28 2.59-2.28 4.07 0 1.01-.35 2.5-.78 3.31-.42.81-.78 2.32-.79 3.36-.03 2.48-.4 6.64-1.34 6.77s-.74-1.1-1.81-2.35c-1.06-1.25-1.15-1.01-2.49-1.26l-1.05.27c-.02.21-.05.01-.05.01l.04-.01v-.06c-.11.11-.25.19-.41.28-1.54.82-2.42 4.64-1.78 7.66.29 1.37.79 3.81 1.12 5.42.36 1.8 1.18 3.67 2.11 4.85 1.4 1.76 1.52 2.24 1.52 6.14 0 4.62 1 8.41 2.61 9.87.89.81 1 1.64 1 7.57 0 4.88-.21 7.06-.77 8.14-1.04 2.02-5.93 5.64-10.71 7.94-2.17 1.05-5.02 2.72-6.34 3.73-3.22 2.46-6.57 3.71-11.16 4.15-6.45.62-13.46 3.75-18.44 8.23-5.9 5.3-9.59 11.12-12.29 19.38-1.36 4.18-1.45 5.04-1.77 17.57l-.34 13.17-2.21 5.17c-2.79 6.53-3.9 10.86-4.68 18.35-.68 6.43-1.11 7.58-4.39 11.89-5.04 6.62-6.04 9.21-8.07 20.93-2.92 16.87-3.09 19-2.74 33.59.48 20.04-.75 46.61-2.39 51.58-.35 1.05-.27 1.98.28 3.29.47 1.13.76 3.52.76 6.25 0 4.04.16 4.75 1.86 8.2 1.02 2.08 2.72 4.77 3.76 5.98s2.17 2.84 2.51 3.61 1.17 1.55 1.85 1.72 1.5.87 1.82 1.56c.79 1.74 3.02 1.72 3.69-.02.52-1.37-.08-3.52-2-7.17-.8-1.52-.98-2.56-.75-4.48.2-1.7.01-3.27-.6-4.98l-.9-2.5 1.88-6.92c1.03-3.81 2.01-7.14 2.17-7.4.44-.7 1.01.1 1.73 2.45 1.08 3.5 3.23 8.21 4.32 9.43 1.02 1.15 3 1.5 4.73.83 2.23-.85 1.92-5.23-.76-11.21-.79-1.75-2.06-5.38-2.83-8.06-1.63-5.71-2.24-7-4.41-9.32l-1.6-1.72.77-5.48c1.12-7.9 2.6-13.11 4.98-17.53 3-5.54 7.39-15.67 8.91-20.5.71-2.27 1.8-6.69 2.42-9.81.62-3.13 1.58-7.16 2.12-8.97.71-2.35 1-4.84 1-8.72 0-4.43.18-5.74.98-7.05.53-.89 1.96-4.87 3.16-8.85 1.2-3.98 3.29-9.44 4.64-12.14 1.35-2.7 2.94-6.62 3.53-8.72.59-2.09 1.18-3.91 1.31-4.04.28-.28.45.3 2.06 7.08 1.33 5.64 3.89 13.09 5.17 15.11 1.21 1.9 1.84 6.26 2.39 16.5.502 9.44.412 11.48-1.04 24.19-.28 2.42-.51 9.05-.51 14.74 0 8.87-.32 14.32-1.13 17.99.012.01.03 0 .05 0 .44.2 3.36.97 4.79 1.32 1.43.35 13.65 2.51 21.852 3.16 9.03.71 41.14.43 53.47-.47 12.81-.93 19.29-2.8 19.922-2.98.63-.19 3.91-1.13 5.07-1.53h.05c-.45-1.22-1.047-3.07-1.6-5.02-.9-3.16-2.47-8.07-3.47-10.91-1.01-2.84-2.33-7.84-2.948-11.11-.62-3.27-1.94-9.31-2.94-13.43s-1.94-9.16-2.09-11.19c-.39-5.72 1.23-19.24 2.97-24.72 1.45-4.57 2.58-11.31 2.61-15.45.01-2.08.03-2.05 1.98 2.28 1.09 2.41 3.257 6.95 4.816 10.07s3.23 7.14 3.72 8.91c.49 1.76 1.45 4.21 2.15 5.42 1.073 1.88 1.26 2.88 1.27 6.77.01 3.71.3 5.42 1.54 9.04.85 2.47 2.24 7.11 3.11 10.33.87 3.22 2.44 7.75 3.48 10.08 1.88 4.16 7.15 13.21 11.143 19.14 1.12 1.66 2.92 4.8 4.01 6.97 1.97 3.96 6.17 16.9 6.17 19.04 0 .63-.545 1.94-1.21 2.93-2.06 3.03-2.67 6.14-1.94 9.83.63 3.16.62 3.22-1.185 6.99-2.49 5.19-3.25 8.72-2.314 10.68.4.82 1.38 1.81 2.19 2.2 2.35 1.125 3.61.19 5.3-3.95l1.48-3.59.63 2.39c1.46 5.53.22 11.5-3.27 15.715-.65.794-1.46 2.353-1.8 3.47-.51 1.7-.47 2.223.24 3.31.65 1 .73 1.604.33 2.66-.69 1.82.36 4.04 2.03 4.28 1.483.21 3.71-2.13 8.45-8.9 1.77-2.523 3.54-5.043 3.95-5.594.44-.61.89-3.09 1.12-6.27.21-2.89.76-6.15 1.23-7.24.68-1.6.87-4.28 1-13.69.15-11.29.09-12.08-1.61-22.3-2.66-15.92-3.16-19.6-4.03-29.38zM705.11 355.57c-7.398.87-22.79.87-29.766-.004-3.083-.387-16.006-5.154-17.896-5.856.207 1.938.134 4.99-.225 10.93-.64 10.6-.484 12.743 2.117 29.793 1.547 10.106 1.5 15.024-.195 22.22-.77 3.266-1.754 9.078-2.188 12.914-.43 3.836-1.383 9.418-2.117 12.402-6.164 25.1-6.203 25.8-3 54.68 2.14 19.3 3.582 40.11 3.18 45.81-.16 2.27-.762 5.87-1.336 8.01-.574 2.13-1.06 4.91-1.078 6.2-.043 2.83-1.027 4.69-6.543 12.42-4.215 5.89-9.62 11.1-13.703 13.2-3.074 1.58-7.555 5.44-8.414 7.24-1.316 2.77-.602 6.17 1.816 8.59 1.063 1.06 2.41 1.93 2.996 1.93s1.223.26 1.418.58c.227.36 1.188.46 2.594.27 1.36-.19 2.367-.09 2.578.24.188.3 1.07.87 1.957 1.25 2.063.89 2.418.79 10.02-2.96 6.875-3.39 7.363-3.86 9.586-9.21 2.27-5.46 2.88-5.94 9.14-7.19 2.99-.6 6.01-1.51 6.72-2.03 3.02-2.22 3.48-5.73 1.58-11.99-1-3.31-1.12-4.5-.81-8.39.23-2.85.11-6.27-.3-9.18-.57-4.06-.54-5.37.26-10.45 1.58-10.1 7.46-33.69 9.91-39.77 5.36-13.3 6.62-23.89 4.31-36.32-1.4-7.49-1.8-14.55-.98-17.12.35-1.1 1.92-5.25 3.49-9.23 2.13-5.39 3.3-9.4 4.57-15.72 3.24-16.09 7.08-27.75 13.05-39.65 4.2-8.38 8.01-17.27 9.65-22.57 1.1-3.52 1.73-4.69 3.04-5.69.9-.68 1.68-1.76 2.37-3.24-2.62 5.16-7.44 6.61-17.77 7.83zm59.88-.11c-18.726.052-24.54-.383-28.634-3.17l.17.174 2.17 8.523c2.462 9.645 3.044 11.387 7.122 21.324 3.3 8.06 5.203 15.02 5.957 21.82.285 2.56.77 7 1.074 9.88.34 3.19 1.46 8.32 2.86 13.14 1.33 4.58 2.3 8.97 2.3 10.43 0 1.39-.84 6.3-1.86 10.9-3.82 17.12-2.64 29.57 4.19 44 2.28 4.84 2.78 6.61 6.67 23.55 3.3 14.38 4.23 21.35 3.56 26.72-.36 2.83-.36 5.13-.02 6.83.43 2.21.32 3.19-.8 6.86-1.93 6.33-2.02 6.97-1.34 9.23 1.01 3.37 3.11 4.77 9.63 6.39 3.18.79 6.07 1.81 6.51 2.3.43.49 1.82 3.08 3.08 5.77 1.26 2.69 2.95 5.51 3.76 6.27 1.26 1.2 6.37 4.26 11.8 7.08 2.37 1.24 5.6 1.07 7.14-.37.81-.76 1.4-1 1.62-.64.5.82 2.64.68 3.38-.22.35-.42 1.03-.77 1.51-.77 1.62 0 4.02-3.16 4.34-5.73.65-5.06-.99-7.5-8.38-12.47-6.57-4.41-10.17-7.98-15.27-15.12-6-8.39-6.13-8.63-6.53-12.4-.18-1.7-.86-6.12-1.5-9.81-1.03-5.91-1.13-7.77-.84-15.5.3-8.18.7-13.43 2.66-35.39.42-4.69.9-13.52 1.08-19.63.35-12.53-.21-18.07-2.99-29.45-1.16-4.77-1.54-7.4-1.43-10.07.21-5.18-.56-15.53-1.4-18.84-.8-3.13-.91-8.99-.23-12.16.24-1.14 1.49-5.92 2.77-10.64 3.08-11.37 3.89-16.51 4.31-27.49.1-2.61.45-5.39.69-8.28-.95.72-4.85 3.57-8.62 4.86-4.34 1.48-9.51 1.99-20.57 2.18z" fill="silver"/>
  <path d="M697.08 42.69c1.336.247 1.426.01 2.488 1.26 1.066 1.25.867 2.484 1.81 2.35.94-.132 1.304-4.288 1.335-6.77.012-1.034.37-2.546.793-3.358.426-.813.777-2.305.777-3.31 0-1.48.438-2.26 2.277-4.065l2.277-2.235 2.504.555c1.38.3 5.18 1.035 8.45 1.63 5.6 1.01 6.18 1.026 9.73.28 4.7-.988 6.84-1.004 8.13-.058.86.62 1.01 1.41 1.05 5.55.11 10.85 1.74 13.06 4.14 9.42 2.41-3.65 4.29-2.18 5.03-1.24.42.52.49 1.78.63 1.51.12-.21.28-1.37.7-4.57.95-7.28.57-11.16-.47-13.55-.08-.2-.21-.46-.35-.73-.26-.51-.59-1.08-.9-1.61l-.26-.44c-.54-.85-1.51-2.57-2.14-3.82-2.06-4.06-3.83-5.62-7.7-6.77-3.03-.9-3.89-1.45-6.12-3.88-2.5-2.74-4.37-3.58-4.88-2.19-.19.51-.37.51-.92 0-1.04-.99-2.44-.77-2.82.43-.26.82-.6.99-1.45.72-2.93-.93-3.68-.87-4.21.35-.49 1.14-.72 1.19-5.03 1.02-3.81-.16-4.52-.06-4.52.61 0 .11.02.23.06.35.09.33.3.65.53.8.04.03.06.07.07.12.02.31-.82 1.01-2.19 1.8-1.81 1.04-2.93 2.11-3.4 3.24-.39.93-1.43 2.21-2.33 2.85-1.46 1.04-2.65 2.93-3.37 5.2-.53 1.65-.81 3.49-.78 5.35.03 1.57.05 2.96.07 4.19.1 6.77.07 8.69.03 9.18v.06l1.05-.27zm77.24 230.11c-.633.187-7.113 2.05-19.926 2.984-12.336.9-44.438 1.176-53.473.465-8.2-.65-20.42-2.81-21.85-3.16-1.43-.35-4.35-1.12-4.79-1.32-.02-.01-.03 0-.05 0-.11-.03-.2.01-.33.15-.14.15-.78 1.59-.88 2.04-.06.27-.06.47.04.5-.34 1.24-2.91 6.49-4.8 12.24-7.53 22.06-11.99 46.5-11.32 58.72 0 .03 0 .06.01.09v.01c-.02.02-.27.38-.25.48.03.1.03 2.32.05 2.85.03.53.1.52.48.73l.24.09c1.89.7 14.82 5.47 17.9 5.85 6.98.87 22.37.87 29.77 0 10.32-1.22 15.15-2.67 17.77-7.83 1.4-2.76 2.17-6.57 2.82-11.97.08-.69.17-1.4.25-2.14.57-5.25.91-6.75 1.54-4.11.29 1.19.63 3.22 1.07 6.14 1.35 8.87 2.1 11.3 5.41 14.59.8.79 1.57 1.46 2.41 2.03 4.1 2.78 9.91 3.22 28.64 3.17 11.06-.2 16.23-.7 20.57-2.18 3.77-1.29 7.67-4.14 8.62-4.86l.22-.17s.57-.36.65-1.03c.01-.07.23-2.84.02-3.04-.21-.2-.51-.72-.53-1.73-.45-10.22-3.19-22.33-5.11-31.46-.35-1.67-.68-3.26-.95-4.7-.55-2.37-1.36-7.23-1.8-10.81-.22-1.79-.54-3.74-.88-5.45-.34-1.7-.69-3.16-.98-3.95-.58-1.59-1.26-3.7-1.51-4.69-.85-3.38-1.78-6.1-2.35-7.36-.07-.28.05-.39.03-.53-.04-.27-.81-1.96-.99-2.12-.16-.15-.26-.16-.55-.13h-.05c-1.15.39-4.43 1.34-5.06 1.53z"/>
  <path fill="silver" d="M270.76 596.1c-2.445-.742-3.594-1.61-4.934-3.727-.73-1.16-2.285-2.992-3.453-4.07l-2.12-1.96-7.52.257c-8.997.305-10.4-.152-12.317-4.02-1.043-2.098-1.242-3.578-1.668-12.398-.57-11.852-1.36-15.52-6.488-30.164-1.89-5.402-4.324-12.375-5.406-15.5-1.082-3.13-3.403-9.406-5.153-13.953-1.75-4.547-3.75-10.125-4.45-12.398-1.97-6.406-4.29-18.84-5.12-27.383-1.71-17.664-3.18-24.508-7.1-33.066-2.86-6.258-3.39-7.797-5.79-17.05-1.73-6.66-2.35-8.61-5.33-16.794-.57-1.563-1.78-5.164-2.68-8.008-1.52-4.766-3.09-9.156-4.91-13.69-1.05-2.615-8.57-19.7-10.77-24.45-1.03-2.223-1.87-4.125-1.87-4.227s-.8-1.93-1.79-4.06c-.98-2.13-2.3-5.46-2.92-7.4-.62-1.94-2.4-6.32-3.95-9.73-1.55-3.41-3.2-7.42-3.66-8.92-1.07-3.44-6.04-9.88-7.65-9.92-1.69-.04-3.08 2.73-3.49 6.95-.19 1.99-1.05 7.68-1.92 12.66-4.14 23.75-4.6 29.63-4.54 57.6.05 20.27-.44 28.38-2.19 35.91-1.56 6.73-1.56 17.04 0 27.57 2.64 17.85 2.6 27.36-.15 42.44-.67 3.69-1.61 9.73-2.07 13.43-.46 3.69-1.05 8.11-1.31 9.81-1.07 7.02-2.57 21.24-2.57 24.36 0 1.84.27 4.96.6 6.94.47 2.82.45 4.51-.08 7.84-.37 2.33-.82 6.93-.98 10.22-.34 6.98-.98 8.41-4.14 9.26-2.2.59-2.35.86-2.9 5.17-.46 3.67-1.02 5.1-2.68 6.84-2.44 2.56-5.46 2.42-14.67-.68-2.45-.83-5.71-1.68-7.23-1.9-2.32-.33-2.87-.63-3.45-1.83-1-2.1-.1-4.21 3.36-7.86 3.05-3.21 5.35-6.44 7.69-10.81 1.68-2.63 3.45-5.79 4.08-7.84.65-2.11.89-10.05.89-10.05.09-9.23-.02-10.54-1.28-15.99-3.65-15.79-9.78-51.71-11.18-65.47-.6-5.89 0-20.18 1.25-29.89 1.07-8.29.59-35.69-.82-46.98-1.73-13.93-2.52-19.24-4.37-29.78-3.36-19.13-5.97-38.61-6.28-46.78-.55-14.76 2.46-35.15 7.01-47.47.83-2.26 1.87-5.51 2.29-7.21.42-1.71 1.51-5.08 2.42-7.49.91-2.42 2.22-6 2.91-7.97 1.94-5.55 4.6-10.56 7.7-14.51 3.28-4.17 5.69-8.9 6.99-13.71.51-1.86 1.64-5.42 2.53-7.92 1.4-3.97 1.6-5.21 1.58-9.8-.02-7.43-.86-18.78-1.47-19.85-.44-.79-.61-.67-1.26.91-.41.99-1.38 4.01-2.16 6.71-.77 2.7-2.29 7.7-3.36 11.11-1.97 6.27-3.37 11.5-4.83 18.08-.9 4.05-4.66 11.72-9.64 19.63-1.78 2.84-4.73 7.57-6.54 10.52-1.82 2.94-7.1 10.87-11.76 17.62-4.65 6.75-9.21 13.76-10.12 15.57-.91 1.81-2.66 5.06-3.87 7.21L69.4 290l1.106 3.157c.987 2.824 1.04 3.46.49 6.08-.337 1.61-1.204 4.21-1.923 5.783-1.11 2.42-1.31 3.623-1.32 7.834-.01 3.705-.26 5.506-.96 7.045-1.31 2.86-3.98 5.62-5.044 5.21-.74-.28-.8 0-.51 2.24.18 1.4.92 3.84 1.64 5.41 1.19 2.6 1.25 3.04.68 5.07-.35 1.22-.82 2.43-1.06 2.69-.56.64-2.26-.94-3.05-2.86-.55-1.32-.75-1.44-1.47-.86-.46.36-1.56 1.07-2.45 1.56-2.64 1.45-3.03.39-3.78-10.21-.39-5.54-.32-6.59.62-9.8.96-3.26 1-3.96.43-7.36-.35-2.07-.51-3.96-.37-4.19.14-.24.63-4.72 1.08-9.95.45-5.24 1.18-10.8 1.63-12.37.44-1.57 2.87-6.95 5.39-11.97 7.61-15.13 10.57-22.22 17.32-41.51 1.59-4.55 4-10.36 5.36-12.92 1.36-2.56 3.52-6.63 4.81-9.04 2.62-4.91 5.33-13.17 7.38-22.48.75-3.41 1.57-6.9 1.83-7.75.25-.85.81-4.11 1.22-7.23s1.12-8.01 1.56-10.85c.53-3.45.78-8.53.75-15.24-.04-9.05.09-10.65 1.26-15.66 1.52-6.48 3.28-9.89 7.47-14.43 4.63-5.02 9.16-6.73 20.11-7.59 5.05-.4 6.34-.7 9.63-2.27 6.21-2.95 9.55-6.64 10.28-11.36.28-1.83.18-2.03-1.66-3.19-1.08-.69-3.02-2.49-4.33-4.02-1.76-2.06-3.15-3.09-5.37-3.99-4.42-1.79-8.1-4.72-9.46-7.52-1.05-2.17-1.09-2.55-.45-4.23 1-2.62 2.27-3.33 3.31-1.83.92 1.3 3.34 1.6 3.34.4 0-.41-.72-2.74-1.6-5.18-1.66-4.58-3.19-6.38-6.15-7.25-1.62-.48-3.62-2.27-3.62-3.25 0-.41.58-1.2 1.29-1.76 1.64-1.3 1.63-2.72-.02-4.89-5.08-6.67-3.15-15.3 5.08-22.7 4.29-3.87 6.78-5.34 10.44-6.19 1.88-.44 5.22-1.54 7.4-2.43 4.25-1.74 4.88-1.79 18.42-1.43 8.12.22 12.86 2.24 17.83 7.61 5.52 5.96 11.09 13.04 11.78 14.98.39 1.07.93 3.56 1.22 5.54.59 4.12 1.61 6.33 4.87 10.62 4.22 5.56 5.38 11.66 3.28 17.29-1.42 3.79-2.63 5.13-8.78 9.8-4.12 3.14-5.78 4.07-8.21 4.64-3.99.93-4.15 1.06-4.15 3.33 0 2.69 2.19 6.81 4.98 9.38 4.06 3.73 12.55 6.75 17.01 6.02 2.78-.46 9.9.91 13.67 2.61 5.69 2.58 10.98 9.14 12.97 16.06 1.92 6.71 2.19 9.56 2.27 23.85.07 12.96.21 14.91 1.49 22.22 2.48 14.04 4.33 21.94 6.28 26.66 7.7 18.66 8.45 22.23 12.4 58.85 1.29 11.93 2.44 22.05 2.57 22.47.12.43.59 3.8 1.03 7.49.91 7.54 1.65 9.67 7.52 21.54 2.26 4.57 3.59 7.89 3.59 8.97 0 1.19.73 2.77 2.36 5.16 1.3 1.89 2.6 4.06 2.9 4.81.29.75.72 4.5.95 8.34.45 7.57.14 9.02-1.61 7.45-.88-.8-.96-.77-1.27.48-.61 2.42-1.51 2.6-3.03.6-.76-1-1.59-1.81-1.84-1.81s-.73.87-1.07 1.94c-.82 2.58-1.92 4.26-2.78 4.26-1.4 0-1.94-6.67-.84-10.37.91-3.05.42-4.87-1.85-6.88-2.6-2.29-3.87-4.59-4.87-8.8-.82-3.42-1.13-3.93-4.46-7.286-4.89-4.92-6.37-8-6.37-13.29 0-9.78-4.97-28.77-12.81-48.955-3.34-8.59-9.17-24.67-10.6-29.23-.78-2.48-1.54-6.66-1.88-10.33-.76-8.22-6.7-31.64-8.15-32.12-.27-.09-1.06.29-1.76.84-1.05.82-1.41 1.79-1.95 5.31-.36 2.37-1.11 6.63-1.66 9.47-1.98 10.16-2.21 14.25-1.32 23.07.74 7.3 1.01 8.56 2.86 12.92 1.13 2.66 2.53 6.46 3.11 8.45.97 3.31 3.48 21 4.76 33.58 1.39 13.57 2.727 21.16 5.87 33.322 4.13 15.99 4.437 17.55 7.21 36.94 1.657 11.58 2.45 19.17 2.856 27.38.99 20.04 2.81 36.75 4.92 45.21.672 2.7 1.82 7.81 2.56 11.36 1.67 8.13 2.09 9.6 5.91 20.67 6.44 18.65 7.16 23.47 8.582 57.87 1.32 31.95 1.74 37.943 3.17 45.72.73 3.98 1.65 7.813 2.03 8.524s4.95 5.62 10.15 10.91c8.52 8.67 9.76 9.74 12.55 10.81 3.89 1.49 7.63 4.15 9.044 6.44 1.04 1.68 1.046 1.83.22 3.467-1.335 2.64-2.843 4.03-4.38 4.03-.77 0-2.24.35-3.26.78-1.99.83-10.85 1.02-13.28.283"/>
  <path d="M153.52 316.11c-1.4-.152-2.578.152-2.578.152s-.692-1.633-1.125-2.78c-.477-1.282-1.848-6.71-3.04-8.84-1.19-2.133-2.996-5.387-4.01-7.235-4.353-7.938-9.052-15.566-11.388-18.488-4.25-5.31-12.23-12.41-17.19-15.28-6.03-2.89-10.15-.23-12.99.65 0 0-.29-.06-.13-.53.08-.24.49-1.59.67-1.98.18-.38.23-.11.34-.5.11-.39.75-3.4 1.27-4.69.53-1.29 1.92-5.02 3.09-8.29 3.92-10.9 5.9-14.76 10.34-20.15 2.18-2.65 4.82-8.23 5.88-12.4.4-1.56 1.45-4.9 2.33-7.4 1.41-3.99 1.61-5.23 1.59-9.82-.02-6.27-.79-17.86-1.26-18.95-.18-.43-1.31-1.5-2.5-2.38-2.77-2.04-4.68-4.8-6.61-9.57-3.2-7.85-3.02-9.96 1.59-19.3 5.81-11.77 6.13-13.23 7.04-32.46.22-4.79.43-7.92.43-7.92l8.7-.91s1.02 3.3 1.38 4.67c2.08 8.01 4.1 12.29 8.64 18.24 4.03 5.29 7.23 7.91 13.45 11.05 8.19 4.12 14.1 3.28 22.62-3.21 10.42-7.94 15.41-15.52 18.03-27.39.71-3.23 1.57-7.27 1.57-7.27l9.23.61s.54 3.98.43 11.38c-.23 16.18 1.63 26.58 6.7 37.57 2.6 5.63 2.76 6.2 2.95 10.91.34 8.24-1.17 11.74-6.92 15.98-2.66 1.96-2.71 2.06-3.33 5.77-.34 2.07-1.08 6.09-1.62 8.93-1.97 10.23-2.2 14.26-1.31 23.07.74 7.3 1.01 8.55 2.86 12.91 5.1 8.41 6.4 31.08 7.47 37.71.09.27.24.26.31.45.07.21.26 1.96.28 2.23.04.54-.31.5-.31.5s-.81-.11-2.19-.44c-.9-.21-3.27-.41-5.27-.43-3.12-.04-4.13.19-7.07 1.64-4.25 2.09-13.44 8.92-18.14 13.47-1.94 1.89-6.84 7.84-10.89 13.24-4.05 5.4-8.36 10.71-9.57 11.81-2.21 1.99-5.09 6.15-6.34 5.99-.36-.04-1.94-.22-3.49-.39zm-5.26-224.87c-1.04-.55-3.07-2.35-4.512-4.01-1.968-2.263-3.36-3.314-5.6-4.216-4.4-1.785-8.08-4.71-9.435-7.52-1.05-2.168-1.09-2.547-.45-4.23.997-2.62 2.27-3.325 3.313-1.832.914 1.304 3.336 1.6 3.336.41 0-.41-.722-2.742-1.605-5.184-1.656-4.578-3.184-6.38-6.145-7.246-1.617-.473-3.617-2.265-3.617-3.242 0-.406.582-1.195 1.293-1.758 1.64-1.293 1.633-2.72-.023-4.89-5.082-6.665-3.153-15.293 5.078-22.692 4.297-3.86 6.78-5.336 10.44-6.187 1.888-.438 5.22-1.528 7.404-2.418 4.25-1.75 4.882-1.797 18.425-1.438 8.118.223 16.262 2.246 21.23 7.613 5.516 5.954 7.692 13.043 8.384 14.973.382 1.078.933 3.57 1.214 5.547.598 4.117 1.61 6.336 4.872 10.625 4.226 5.555 5.382 11.656 3.277 17.293-1.42 3.78-2.63 5.133-8.78 9.8-4.1 3.102-5.79 4.064-8.16 4.622-1.65.383-4.14 1.304-4.14 1.304s-3.71-5.785-3.57-10.957c.27-9.324 1.61-15.7 4.26-20.214 1.79-3.063 2.3-7.668 1.09-10-.79-1.524-1.01-1.625-3.37-1.524-3.93.17-5.57-1.76-6.78-7.95-.59-3.01-.57-3.62.19-5.13.47-.95.72-2.18.54-2.73-.28-.85-.59-.94-2.21-.6-3.03.65-6.69.51-12.22-.46-6.05-1.07-9.71-.79-13.26 1-4.1 2.05-4.57 3.05-4.58 9.7-.01 4.96-.17 6.1-1.24 8.38-.71 1.5-2.06 3.28-3.15 4.11l-1.93 1.46.22 4.67c.18 3.85.5 5.26 1.8 8.04.87 1.84 2.34 5.18 3.27 7.42 1.8 4.35 2.42 2.78 4.63 7.55 2.2 4.77 1.95 8.66 1.94 13.53 0 0-.32-.76-1.52-1.66"/>
  <g id="a">
    <path d="M27.646 12v569.37" stroke="#000" stroke-width="2.4" fill="none"/>
    <path d="M27.646 7.424L22.048 27.01h11.188z"/>
    <path d="M33.454 568.82l-5.785 15.735-5.79-15.735h11.57" fill-rule="evenodd"/>
  </g>
  <path d="M273.86 302.58l-8.186 6.81.485.18 9.54 3.574-1.85-10.564z"/>
  <path d="M257.46 321.73c-4.994.922-9.375-3.262-9.985-8.16-.813-6.54 4.457-12.145 10.656-12.746 4.6-.445 9.13 1.73 11.94 5.434m358.49 14.772c5.06-.426 8.19-5.617 7.48-10.5-.94-6.524-7.49-10.544-13.63-9.49-4.55.778-8.35 4.076-10.08 8.384" stroke="#000" stroke-width="2.393" fill="none"/>
  <path d="M607.14 306.79l.713 10.688 8.86-6.04-.466-.226-9.107-4.422z"/>
  <path d="M280.31 604.9c-14.11-4.035-28.223-8.074-42.336-12.113" stroke="#000" stroke-width="2.4" fill="none"/>
  <path d="M243.67 589.25l-9.355 2.47 6.88 6.815zm30.76 19.07l9.363-2.422-6.84-6.85z"/>
  <path d="M681.76 583.21c-12.832 7.125-25.668 14.25-38.5 21.37" stroke="#000" stroke-width="2.4" fill="none"/>
  <path d="M645 597.94l-4.992 8.286 9.68.105zm35.18-8.13l4.88-8.348-9.685.023z"/>
  <use xlink:href="#a" transform="translate(824)" height="100%" width="100%"/>
  <path d="M146.95 33.59l-9.91 5.635 9.904 5.695v-.865l.006-10.465zm561.28 0l-9.914 5.635 9.904 5.693.002-.863.008-10.465zm-533.1.062v.863l-.006 10.475 9.91-5.648-9.904-5.69zm561.29 0v.863l-.01 10.475 9.91-5.648-9.9-5.69zM159.63 85.338l-9.91 5.652 9.904 5.682.002-.863.004-10.48zm553.04 0l-9.91 5.652 9.904 5.682v-.863l.006-10.48zm14.41.025l-.002.863-.004 10.475 9.91-5.64-9.904-5.69zm-553.04.004v.863l-.006 10.47 9.91-5.643-9.904-5.69zM121.9 113.97l-9.914 5.588 9.896 5.746.002-.865.016-10.47zm556.64 0l-9.918 5.588 9.896 5.746.002-.865.02-10.47zm-473.53.61l-.002.865-.023 10.47 9.92-5.598-9.895-5.737zm556.64 0l-.002.865-.02 10.47 9.918-5.598-9.896-5.737zm-542.67 8.18l-3.795 10.79.852-.16 10.293-1.92-7.35-8.71zm446.78.86l-8.03 8.15.84.217 10.14 2.63-2.95-10.997zm-541.15 32.45l-.746.422-9.168 5.172 9.896 5.736.018-11.33zm553.93 0l-9.918 5.594 9.896 5.736.002-.867.02-10.463zm-470.81.61l-.023 11.338.746-.422 9.168-5.176-9.89-5.74zm553.92 0l-.002.867-.02 10.47 9.918-5.597-9.896-5.74zm-623.88 36.88l-.746.424-9.168 5.197 9.896 5.72.018-11.33zm57.19.34l-.014 11.332.746-.422 9.168-5.19-9.9-5.72zm-68.23 32.02l-.748.422-9.174 5.176 9.902 5.732.02-11.33zm560.64 0l-9.918 5.598 9.904 5.732v-.867l.014-10.463zm-489.99.46l-.018 11.338.746-.422 9.168-5.176-9.896-5.74zm560.64 0v.867l-.018 10.47 9.915-5.597-9.897-5.74zm-135.88 45.75l2.953 10.996 8.02-8.158-.84-.217-10.133-2.62zm-366.24.96l-.846.174-10.262 2.115 7.528 8.56 3.58-10.85zm-148.65 2.31l-9.914 5.594 9.896 5.74.002-.867.016-10.467zm574.94.34l-9.918 5.594 9.896 5.744.002-.865.02-10.473zm-476.07.46l-.002.867-.02 10.475 9.918-5.592-9.896-5.75zm565.95.22l-.002.87-.016 10.468 9.91-5.588-9.892-5.75zm-646.19 40.01l-6.05 9.855.89.002 10.92.034-5.76-9.89zm645.72.06l-5.072 9.982.83-.013 10.73-.19-6.488-9.79zm14.48 241.25l-.832.014-10.73.183 6.487 9.783 5.074-9.98zm-667.89.15l5.758 9.895 6.043-9.854h-.88l-10.91-.03z" fill="#fff"/>
  <path d="M219.88 127.27c10.504 50.75 21.012 101.5 31.516 152.25M664.58 128.07l-38.37 150.67m46.54-116.93l94.67.34m-94.67-42.34l94.67.34m-651.31-.34l94.67.34m-69.62-80.978l39.75.047m521.53-.05l39.75.04m-60.61 192.67l82.207.27M101.46 281.33c36.813.152 73.625.3 110.43.445m560.15 38.815l8.508 243.02M125.81 320.52c-.582 81.06-1.168 162.11-1.754 243.17M153.85 91.02l25.972.023m527.068-.023l25.973.023M120.94 231.89l82.207.27m-71.157-32.89c22.914.066 45.832.132 68.746.2m-81.906-37.66l94.67.34M676.4 281.5l101.43.387" stroke="#fff" stroke-width="2.4" fill="none"/>
  <g stroke="#d2d2d2" stroke-linecap="round" fill="none" stroke-width="1.6">
    <path d="M198.94 38.81h177.17m127.36 0h186.22" stroke-dasharray="4.8 4.8"/>
    <path d="M190.2 91.07h187m125.07 0h195.22" stroke-dashoffset="1.843" stroke-dasharray="4.937 4.937"/>
    <g stroke-dashoffset="7">
      <path d="M236.47 120.3l127.67.06m150.73.076l133.02.063" stroke-dasharray="4.713 4.713"/>
      <path d="M239.63 166.48h132.62m134.98 0h131.79" stroke-dasharray="4.795 4.795"/>
      <path d="M247.74 199.38h96.35" stroke-dasharray="4.644 4.644"/>
      <path d="M254.37 231.5l114.24-.05m144.43-.043l103-.048" stroke-dasharray="4.709 4.709"/>
    </g>
    <path d="M258.7 255.84h129.24m104.36 0h121.4" stroke-dashoffset="8" stroke-dasharray="4.933 4.933"/>
    <g stroke-dashoffset="2">
      <path d="M655.23 231.52h18.86" stroke-dasharray="4.765 4.765"/>
      <path d="M639.68 282.2h26.234" stroke-dasharray="4.77 4.77"/>
      <path d="M238.11 380.75l102.34-.01m198.66-.018l112.5-.01" stroke-dasharray="4.82 4.82"/>
    </g>
    <path d="M266.19 282.12l111.26-.01m124.99-.023l113.3-.01" stroke-dashoffset="3" stroke-dasharray="4.794 4.794"/>
    <path d="M221.05 281.96h18.687" stroke-dashoffset="2" stroke-dasharray="4.734 4.734"/>
    <g stroke-dashoffset="8">
      <path d="M146.36 380.89h36.313" stroke-dasharray="4.796 4.796"/>
      <path stroke-dasharray="4.763 4.763" d="M708.18 380.87h33"/>
      <path d="M795.6 446.49h51.652" stroke-dasharray="4.72 4.72"/>
    </g>
    <path d="M690.33 446.47h63.003" stroke-dashoffset="7" stroke-dasharray="4.688 4.688"/>
    <path d="M248.28 446.44h126.84m129.33 0h142.56" stroke-dashoffset="8" stroke-dasharray="4.762 4.762"/>
    <path d="M143.82 446.4h61.75" stroke-dashoffset="7" stroke-dasharray="4.529 4.529"/>
    <path d="M31.92 446.42h67.956" stroke-dashoffset="7" stroke-dasharray="4.698 4.698"/>
    <path d="M285.54 605.15l90.508-.012m126.57-.01l132.34-.018" stroke-dashoffset="8" stroke-dasharray="4.722 4.722"/>
    <path d="M280.32 317.08h91.01m135.7 0h93.088" stroke-dashoffset="2.205" stroke-dasharray="4.794 4.794"/>
    <path d="M208.12 199.27h8.676" stroke-dashoffset="7" stroke-dasharray="4.662 4.662"/>
    <path d="M211.42 231.59h5.465" stroke-dashoffset="7" stroke-dasharray="4.717 4.717"/>
  </g>
  <switch>
    <g systemLanguage="fr">
      <g stroke="#d2d2d2" stroke-linecap="round" fill="none" stroke-width="1.6">
        <path d="M198.94 38.81h176.97m127.36 0h186.42" stroke-dasharray="4.8 4.8"/>
        <path d="M190.2 91.07h190m119.67 0h197.62" stroke-dashoffset="3" stroke-dasharray="4.937 4.937"/>
        <g stroke-dashoffset="7">
          <path d="M236.47 120.3l98.673.06m209.03.076l103.72.063" stroke-dasharray="4.713 4.713"/>
          <path d="M239.63 166.48h118.72m162.78 0h117.89" stroke-dasharray="4.795 4.795"/>
          <path d="M247.74 199.38h52.25" stroke-dasharray="4.644 4.644"/>
          <path d="M254.37 231.5l121.84-.05m131.23-.043l108.6-.048" stroke-dasharray="4.709 4.709"/>
        </g>
        <path d="M258.7 255.84h90.343m181.36 0h83.3" stroke-dashoffset="8" stroke-dasharray="4.933 4.933"/>
        <g stroke-dashoffset="2">
          <path d="M655.23 231.52h18.86" stroke-dasharray="4.765 4.765"/>
          <path d="M639.68 282.2h26.234" stroke-dasharray="4.77 4.77"/>
          <path d="M238.11 380.75l74.136-.01m254.86-.018l84.5-.01" stroke-dasharray="4.82 4.82"/>
        </g>
        <path d="M266.19 282.12l91.557-.01m167.09-.023l90.896-.01" stroke-dashoffset="3" stroke-dasharray="4.794 4.794"/>
        <path d="M221.05 281.96h18.687" stroke-dashoffset="2" stroke-dasharray="4.734 4.734"/>
        <g stroke-dashoffset="8">
          <path d="M146.36 380.89h36.313" stroke-dasharray="4.796 4.796"/>
          <path stroke-dasharray="4.763 4.763" d="M708.18 380.87h33"/>
          <path d="M795.6 446.49h51.652" stroke-dasharray="4.72 4.72"/>
        </g>
        <path d="M690.33 446.47h63.003" stroke-dashoffset="7" stroke-dasharray="4.688 4.688"/>
        <path d="M248.28 446.44h120.44m145.53 0h132.76" stroke-dashoffset="8" stroke-dasharray="4.762 4.762"/>
        <path d="M143.82 446.4h61.75" stroke-dashoffset="7" stroke-dasharray="4.529 4.529"/>
        <path d="M31.92 446.42h67.956" stroke-dashoffset="7" stroke-dasharray="4.698 4.698"/>
        <path d="M285.54 605.15l109.41-.012m89.87-.01l150.14-.018" stroke-dashoffset="8" stroke-dasharray="4.722 4.722"/>
        <path d="M280.32 317.08h93.61m133.6 0h92.588" stroke-dashoffset="3" stroke-dasharray="4.794 4.794"/>
        <path d="M208.12 199.27h8.676" stroke-dashoffset="7" stroke-dasharray="4.662 4.662"/>
        <path d="M211.42 231.59h5.465" stroke-dashoffset="7" stroke-dasharray="4.717 4.717"/>
      </g>
      <g font-size="20" font-family="'DejaVu Sans'" text-anchor="middle" style="text-align:center">
        <text>
          <tspan y="44.94" x="439.605">Tour de tête</tspan>
        </text>
        <text>
          <tspan y="96.94" x="439.605">Tour de cou</tspan>
        </text>
        <text>
          <tspan y="125.94" x="439.605">Largeur des épaules</tspan>
        </text>
        <text>
          <tspan y="172.64" x="439.605">Tour de poitrine</tspan>
        </text>
        <text>
          <tspan y="205.84" x="439.605">Tour de dessous de poitrine</tspan>
        </text>
        <text>
          <tspan y="236.74" x="439.605">Tour de taille</tspan>
        </text>
        <text>
          <tspan y="261.14" x="439.605">Longueur de bras</tspan>
        </text>
        <text>
          <tspan y="287.04" x="439.605">Tour de hanches</tspan>
        </text>
        <text>
          <tspan y="322.44" x="439.605">Tour de main</tspan>
        </text>
        <text>
          <tspan y="386.34" x="439.605">Longueur de jambe / pas</tspan>
        </text>
        <text>
          <tspan y="452.04" x="439.605">Taille du corps</tspan>
        </text>
        <text>
          <tspan y="610.54" x="439.605">Pointure</tspan>
        </text>
        <text>
          <tspan y="585.84" x="439.605">Longueur de pied</tspan>
        </text>
      </g>
    </g>
    <g systemLanguage="en">
      <g stroke="#d2d2d2" stroke-linecap="round" fill="none" stroke-width="1.6">
        <path d="M198.94 38.81h137.17m207.56 0h146.02" stroke-dasharray="4.8 4.8"/>
        <path d="M190.2 91.07h199.2m100.67 0h207.42" stroke-dashoffset="3" stroke-dasharray="4.937 4.937"/>
        <g stroke-dashoffset="7">
          <path d="M236.47 120.3l125.87.06m154.94.08l130.62.06" stroke-dasharray="4.713 4.713"/>
          <path d="M239.63 166.48h147.42m103.88 0h148.09" stroke-dasharray="4.795 4.795"/>
          <path d="M247.74 199.38h63.05" stroke-dasharray="4.644 4.644"/>
          <path d="M254.37 231.5l131.54-.05m106.93-.043l123.2-.048" stroke-dasharray="4.709 4.709"/>
        </g>
        <path d="M258.7 255.84h121.34m118.86 0h114.8" stroke-dashoffset="8" stroke-dasharray="4.933 4.933"/>
        <g stroke-dashoffset="2">
          <path d="M655.23 231.52h18.86" stroke-dasharray="4.765 4.765"/>
          <path d="M639.68 282.2h26.234" stroke-dasharray="4.77 4.77"/>
          <path d="M238.11 380.75l99.336-.01m204.16-.018l110-.01" stroke-dasharray="4.82 4.82"/>
        </g>
        <path d="M266.19 282.12l81.557-.01m185.99-.023l81.996-.01" stroke-dashoffset="3" stroke-dasharray="4.794 4.794"/>
        <path d="M221.05 281.96h18.687" stroke-dashoffset="2" stroke-dasharray="4.734 4.734"/>
        <g stroke-dashoffset="8">
          <path d="M146.36 380.89h36.313" stroke-dasharray="4.796 4.796"/>
          <path stroke-dasharray="4.763 4.763" d="M708.18 380.87h33"/>
          <path d="M795.6 446.49h51.652" stroke-dasharray="4.72 4.72"/>
        </g>
        <path d="M690.33 446.47h63.003" stroke-dashoffset="7" stroke-dasharray="4.688 4.688"/>
        <path d="M248.28 446.44h127.64m127.53 0h143.56" stroke-dashoffset="8" stroke-dasharray="4.762 4.762"/>
        <path d="M143.82 446.4h61.75" stroke-dashoffset="7" stroke-dasharray="4.529 4.529"/>
        <path d="M31.92 446.42h67.956" stroke-dashoffset="7" stroke-dasharray="4.698 4.698"/>
        <path d="M285.54 605.15l104.01-.012m100.87-.01l144.54-.018" stroke-dashoffset="8" stroke-dasharray="4.722 4.722"/>
        <path d="M280.32 317.08h55.61m207.8 0h56.388" stroke-dashoffset="3" stroke-dasharray="4.794 4.794"/>
        <path d="M208.12 199.27h8.676" stroke-dashoffset="7" stroke-dasharray="4.662 4.662"/>
        <path d="M211.42 231.59h5.465" stroke-dashoffset="7" stroke-dasharray="4.717 4.717"/>
      </g>
      <g font-size="20" font-family="'DejaVu Sans'" text-anchor="middle" style="text-align:center">
        <text>
          <tspan y="44.94" x="439.605">Head circumference</tspan>
        </text>
        <text>
          <tspan y="96.94" x="439.605">Neck size</tspan>
        </text>
        <text>
          <tspan y="125.94" x="439.605">Shoulder width</tspan>
        </text>
        <text>
          <tspan y="172.64" x="439.605">Bust girth</tspan>
        </text>
        <text>
          <tspan y="205.84" x="439.605">Underbust measurement</tspan>
        </text>
        <text>
          <tspan y="236.74" x="439.605">Waist size</tspan>
        </text>
        <text>
          <tspan y="261.14" x="439.605">Arm length</tspan>
        </text>
        <text>
          <tspan y="287.04" x="439.605">Hip measurement</tspan>
        </text>
        <text>
          <tspan y="322.44" x="439.605">Hand circumference</tspan>
        </text>
        <text>
          <tspan y="386.34" x="439.605">Leg length / Inseam</tspan>
        </text>
        <text>
          <tspan y="452.04" x="439.605">Body height</tspan>
        </text>
        <text>
          <tspan y="610.54" x="439.605">Shoe size</tspan>
        </text>
        <text>
          <tspan y="585.84" x="439.605">Foot length</tspan>
        </text>
      </g>
    </g>
    <g systemLanguage="de" font-size="20" font-family="'DejaVu Sans'" text-anchor="middle" style="text-align:center">
      <text>
        <tspan y="44.94" x="439.605">Kopfumfang</tspan>
      </text>
      <text>
        <tspan y="96.94" x="439.605">Halsumfang</tspan>
      </text>
      <text>
        <tspan y="125.94" x="439.605">Schulterbreite</tspan>
      </text>
      <text>
        <tspan y="172.64" x="439.605">Brustumfang</tspan>
      </text>
      <text>
        <tspan y="205.84" x="439.605">Unterbrustumfang</tspan>
      </text>
      <text>
        <tspan y="236.74" x="439.605">Taillenumfang</tspan>
      </text>
      <text>
        <tspan y="261.14" x="439.605">Armlänge</tspan>
      </text>
      <text>
        <tspan y="287.04" x="439.605">Hüftumfang</tspan>
      </text>
      <text>
        <tspan y="322.44" x="439.605">Handumfang</tspan>
      </text>
      <text>
        <tspan y="386.34" x="439.605">Bein- / Schrittlänge</tspan>
      </text>
      <text>
        <tspan y="452.04" x="439.605">Körpergröße</tspan>
      </text>
      <text>
        <tspan y="610.54" x="439.605">Schuhgröße</tspan>
      </text>
      <text>
        <tspan y="585.84" x="439.605">Fußlänge</tspan>
      </text>
    </g>
    <g>
      <g stroke="#d2d2d2" stroke-linecap="round" fill="none" stroke-width="1.6">
        <path d="M198.94 38.81h137.17m207.56 0h146.02" stroke-dasharray="4.8 4.8"/>
        <path d="M190.2 91.07h199.2m100.67 0h207.42" stroke-dashoffset="3" stroke-dasharray="4.937 4.937"/>
        <g stroke-dashoffset="7">
          <path d="M236.47 120.3l125.87.06m154.94.08l130.62.06" stroke-dasharray="4.713 4.713"/>
          <path d="M239.63 166.48h147.42m103.88 0h148.09" stroke-dasharray="4.795 4.795"/>
          <path d="M247.74 199.38h63.05" stroke-dasharray="4.644 4.644"/>
          <path d="M254.37 231.5l131.54-.05m106.93-.043l123.2-.048" stroke-dasharray="4.709 4.709"/>
        </g>
        <path d="M258.7 255.84h121.34m118.86 0h114.8" stroke-dashoffset="8" stroke-dasharray="4.933 4.933"/>
        <g stroke-dashoffset="2">
          <path d="M655.23 231.52h18.86" stroke-dasharray="4.765 4.765"/>
          <path d="M639.68 282.2h26.234" stroke-dasharray="4.77 4.77"/>
          <path d="M238.11 380.75l99.336-.01m204.16-.018l110-.01" stroke-dasharray="4.82 4.82"/>
        </g>
        <path d="M266.19 282.12l81.557-.01m185.99-.023l81.996-.01" stroke-dashoffset="3" stroke-dasharray="4.794 4.794"/>
        <path d="M221.05 281.96h18.687" stroke-dashoffset="2" stroke-dasharray="4.734 4.734"/>
        <g stroke-dashoffset="8">
          <path d="M146.36 380.89h36.313" stroke-dasharray="4.796 4.796"/>
          <path stroke-dasharray="4.763 4.763" d="M708.18 380.87h33"/>
          <path d="M795.6 446.49h51.652" stroke-dasharray="4.72 4.72"/>
        </g>
        <path d="M690.33 446.47h63.003" stroke-dashoffset="7" stroke-dasharray="4.688 4.688"/>
        <path d="M248.28 446.44h127.64m127.53 0h143.56" stroke-dashoffset="8" stroke-dasharray="4.762 4.762"/>
        <path d="M143.82 446.4h61.75" stroke-dashoffset="7" stroke-dasharray="4.529 4.529"/>
        <path d="M31.92 446.42h67.956" stroke-dashoffset="7" stroke-dasharray="4.698 4.698"/>
        <path d="M285.54 605.15l104.01-.012m100.87-.01l144.54-.018" stroke-dashoffset="8" stroke-dasharray="4.722 4.722"/>
        <path d="M280.32 317.08h55.61m207.8 0h56.388" stroke-dashoffset="3" stroke-dasharray="4.794 4.794"/>
        <path d="M208.12 199.27h8.676" stroke-dashoffset="7" stroke-dasharray="4.662 4.662"/>
        <path d="M211.42 231.59h5.465" stroke-dashoffset="7" stroke-dasharray="4.717 4.717"/>
      </g>
      <g font-size="20" font-family="'DejaVu Sans'" text-anchor="middle" style="text-align:center">
        <text>
          <tspan y="44.94" x="439.605">Head circumference</tspan>
        </text>
        <text>
          <tspan y="96.94" x="439.605">Neck size</tspan>
        </text>
        <text>
          <tspan y="125.94" x="439.605">Shoulder width</tspan>
        </text>
        <text>
          <tspan y="172.64" x="439.605">Bust girth</tspan>
        </text>
        <text>
          <tspan y="205.84" x="439.605">Underbust measurement</tspan>
        </text>
        <text>
          <tspan y="236.74" x="439.605">Waist size</tspan>
        </text>
        <text>
          <tspan y="261.14" x="439.605">Arm length</tspan>
        </text>
        <text>
          <tspan y="287.04" x="439.605">Hip measurement</tspan>
        </text>
        <text>
          <tspan y="322.44" x="439.605">Hand circumference</tspan>
        </text>
        <text>
          <tspan y="386.34" x="439.605">Leg length / Inseam</tspan>
        </text>
        <text>
          <tspan y="452.04" x="439.605">Body height</tspan>
        </text>
        <text>
          <tspan y="610.54" x="439.605">Shoe size</tspan>
        </text>
        <text>
          <tspan y="585.84" x="439.605">Foot length</tspan>
        </text>
      </g>
    </g>
  </switch>
</svg>
